<?xml version="1.0" encoding="UTF-8"?><svg id="a" xmlns="http://www.w3.org/2000/svg" xmlns:xlink="http://www.w3.org/1999/xlink" viewBox="0 0 1536 615"><defs><style>.c{fill:url(#b);}.d{fill:#efb700;}.e{fill:#fff;}</style><linearGradient id="b" x1="239.42" y1="307.5" x2="391.65" y2="307.5" gradientTransform="matrix(1, 0, 0, 1, 0, 0)" gradientUnits="userSpaceOnUse"><stop offset=".09" stop-color="#4ec8ab"/><stop offset=".65" stop-color="#81f4d8"/></linearGradient></defs><path class="e" d="M586.17,329.08v20.76h-12.49c-9.01,.68-17.94-2.07-24.98-7.7-3.14-3.47-5.51-7.55-6.97-11.98-1.46-4.43-1.98-9.12-1.52-13.76v-41.15h-13.24v-20.38h13.24v-23.75h24.23v23.5h21.36v20.38h-21.36v41.53c-.31,3.42,.67,6.83,2.75,9.57,1.3,1.06,2.79,1.84,4.4,2.31,1.61,.47,3.3,.61,4.96,.42l9.62,.25Z"/><path class="e" d="M598.12,226.01c2.65-2.19,5.88-3.38,9.19-3.38s6.54,1.19,9.2,3.38c1.13,1.13,2.03,2.51,2.64,4.06,.6,1.55,.89,3.22,.85,4.91,.01,1.64-.3,3.27-.9,4.78-.6,1.51-1.49,2.86-2.59,3.96-2.62,2.27-5.86,3.5-9.2,3.5s-6.57-1.23-9.19-3.5c-1.11-1.1-1.99-2.45-2.59-3.96-.6-1.51-.91-3.13-.9-4.78-.04-1.68,.25-3.36,.85-4.91,.6-1.55,1.5-2.93,2.64-4.06Zm19.45,34.94v88.99h-21.14v-88.99h21.14Z"/><path class="e" d="M687.16,261.36c5.41,3.4,9.53,8.55,11.72,14.6v-18.88h22.61v91.06c.12,7.84-1.56,15.61-4.92,22.68-3.23,6.62-8.33,12.11-14.64,15.79-7.19,3.94-15.26,5.9-23.43,5.7-11.19,.55-22.24-2.71-31.4-9.26-7.92-6.23-13.13-15.35-14.53-25.41h22.49c1.13,4.37,3.8,8.17,7.5,10.68,4.25,2.77,9.24,4.14,14.29,3.92,2.96,.13,5.91-.33,8.69-1.37,2.78-1.04,5.32-2.63,7.48-4.68,2.19-2.42,3.86-5.27,4.91-8.38,1.05-3.11,1.45-6.4,1.18-9.67v-18.76c-2.22,6.07-6.33,11.24-11.72,14.73-5.78,3.69-12.5,5.58-19.33,5.46-7.17,.07-14.23-1.86-20.39-5.58-6.16-3.89-11.08-9.49-14.18-16.15-3.33-7.84-5.04-16.29-5.04-24.82s1.71-16.97,5.04-24.81c3.13-6.63,8.04-12.23,14.18-16.15,6.17-3.68,13.22-5.57,20.39-5.46,6.68-.29,13.3,1.36,19.1,4.75h0Zm-29.41,21.73c-4.5,5.39-6.8,12.31-6.45,19.35-.37,7.01,1.94,13.9,6.45,19.24,4.57,4.53,10.71,7.06,17.1,7.06s12.53-2.53,17.1-7.06c4.33-5.43,6.69-12.2,6.69-19.18s-2.36-13.74-6.69-19.17c-4.57-4.53-10.71-7.06-17.1-7.06s-12.53,2.54-17.1,7.06v-.24Z"/><path class="e" d="M777.83,261.64c5.98-3.39,12.82-5.14,19.77-5.06v25.02h-7.18c-17.88,0-26.83,8.06-26.83,24.06v44.27h-25.19v-91.91h25.19v17.56c3.41-5.74,8.31-10.55,14.24-13.95h0Z"/><path class="e" d="M809.55,226.01c2.65-2.19,5.88-3.38,9.19-3.38s6.54,1.19,9.19,3.38c1.13,1.13,2.03,2.51,2.64,4.06,.6,1.55,.89,3.22,.85,4.91,.01,1.64-.29,3.27-.89,4.78-.6,1.51-1.49,2.86-2.59,3.96-2.62,2.27-5.86,3.5-9.19,3.5s-6.57-1.23-9.19-3.5c-1.11-1.1-1.99-2.45-2.59-3.96-.6-1.51-.91-3.13-.9-4.78-.04-1.68,.25-3.36,.85-4.91,.6-1.55,1.5-2.93,2.64-4.06Zm19.34,34.94v88.99h-20.5v-88.99h20.5Z"/><path class="e" d="M902.68,265.03c6.59,5.76,10.87,13.66,12.08,22.26h-21.98c-.77-4.06-2.89-7.75-6.04-10.48-3.41-2.7-7.7-4.09-12.08-3.92-3.33-.17-6.61,.8-9.3,2.74-1.08,.95-1.94,2.13-2.5,3.45-.56,1.32-.83,2.74-.76,4.17-.05,1.14,.17,2.28,.63,3.34,.46,1.05,1.15,1.99,2.03,2.74,1.92,1.65,4.19,2.87,6.64,3.57,2.66,.95,6.52,1.91,11.47,3.1,5.79,1.21,11.48,2.84,17.03,4.88,4.43,1.68,8.35,4.47,11.35,8.09,3.34,4.24,5.01,9.52,4.71,14.88,.11,3.63-.67,7.23-2.27,10.5-1.6,3.27-3.96,6.12-6.91,8.3-7.19,5.17-15.98,7.74-24.88,7.26-10.24,.48-20.37-2.32-28.86-7.97-3.63-2.72-6.67-6.14-8.93-10.04-2.26-3.91-3.7-8.23-4.23-12.69h22.46c.23,2.08,.88,4.08,1.92,5.9,1.04,1.82,2.44,3.42,4.12,4.69,3.98,2.66,8.72,4,13.52,3.81,3.31,.21,6.59-.8,9.18-2.85,1.03-.96,1.84-2.12,2.39-3.42,.54-1.29,.8-2.68,.75-4.08,.04-1.19-.18-2.37-.66-3.46-.48-1.09-1.2-2.07-2.11-2.85-1.97-1.77-4.32-3.07-6.88-3.81-2.66-.95-6.52-1.91-12.08-3.1-5.71-1.18-11.32-2.77-16.79-4.76-4.28-1.54-8.07-4.17-10.99-7.62-3.24-4.1-4.87-9.21-4.59-14.4-.08-3.68,.71-7.32,2.3-10.64,1.59-3.32,3.95-6.24,6.87-8.52,7.31-5.33,16.29-7.95,25.36-7.38,10.07-.75,20.06,2.22,28.02,8.33h0Z"/><path class="e" d="M983.25,264.64c5.33,3.36,9.42,8.31,11.69,14.12v-47.64h22.55v117.09h-22.55v-17.79c-2.29,5.83-6.38,10.8-11.69,14.24-5.77,3.56-12.47,5.4-19.28,5.28-7.16,.08-14.19-1.79-20.33-5.4-6.15-3.76-11.06-9.18-14.14-15.61-3.32-7.58-5.03-15.75-5.03-24s1.71-16.41,5.03-23.99c3.06-6.52,8.04-11.98,14.28-15.71,6.25-3.72,13.48-5.53,20.78-5.18,6.55-.22,13.03,1.37,18.7,4.59h0Zm-29.33,21.01c-4.48,5.21-6.78,11.9-6.43,18.71-.37,6.78,1.93,13.44,6.43,18.6,4.56,4.38,10.68,6.82,17.06,6.82s12.5-2.45,17.06-6.82c4.32-5.25,6.67-11.79,6.67-18.54s-2.36-13.29-6.67-18.54c-4.56-4.38-10.69-6.83-17.06-6.83s-12.5,2.45-17.06,6.83v-.23Z"/><path class="e" d="M1093.19,261.39c5.36,3.46,9.46,8.6,11.69,14.66v-18.94h22.56v91.03h-22.56v-18.47c-2.25,6.07-6.34,11.25-11.69,14.78-5.8,3.72-12.55,5.63-19.4,5.48-7.12,.08-14.12-1.86-20.22-5.6-6.18-3.87-11.09-9.5-14.14-16.2-3.32-7.87-5.03-16.34-5.03-24.91s1.71-17.04,5.03-24.9c3.08-6.68,7.99-12.31,14.14-16.2,6.11-3.71,13.11-5.61,20.22-5.48,6.78-.36,13.52,1.29,19.4,4.77h0Zm-29.33,21.81c-4.53,5.38-6.83,12.34-6.43,19.42-.42,7.04,1.89,13.98,6.43,19.31,2.19,2.34,4.84,4.18,7.79,5.39,2.94,1.21,6.1,1.77,9.28,1.64,3.17,.05,6.32-.56,9.25-1.79s5.59-3.05,7.81-5.36c4.32-5.45,6.67-12.24,6.67-19.24s-2.36-13.8-6.67-19.25c-2.22-2.31-4.88-4.14-7.81-5.36s-6.08-1.84-9.25-1.79c-3.17-.13-6.33,.43-9.28,1.64-2.94,1.21-5.6,3.05-7.79,5.39h0Z"/><path class="e" d="M1194.84,329.08v20.76h-12.44c-8.97,.68-17.86-2.07-24.87-7.7-3.12-3.47-5.48-7.55-6.94-11.98-1.46-4.43-1.97-9.12-1.52-13.76v-41.15h-13.19v-20.38h13.19v-23.75h24.87v23.5h21.14v20.38h-21.14v41.53c-.38,3.43,.61,6.86,2.74,9.57,1.28,1.04,2.75,1.82,4.33,2.29,1.58,.47,3.24,.62,4.88,.44l8.95,.25Z"/><path class="e" d="M1262.33,261.39c5.39,3.42,9.51,8.58,11.69,14.66v-18.95h22.55v91.04h-22.55v-18.47c-2.21,6.09-6.31,11.29-11.69,14.78-5.77,3.7-12.47,5.6-19.28,5.48-7.16,.09-14.19-1.85-20.33-5.6-6.14-3.9-11.05-9.53-14.14-16.21-3.32-7.87-5.03-16.35-5.03-24.91s1.71-17.04,5.03-24.9c3.06-6.76,8.04-12.44,14.28-16.3,6.25-3.86,13.48-5.74,20.78-5.38,6.55-.22,13.02,1.43,18.7,4.77h0Zm-29.33,21.81c-4.48,5.41-6.78,12.35-6.43,19.42-.37,7.04,1.93,13.95,6.43,19.31,4.56,4.54,10.69,7.08,17.06,7.08s12.5-2.54,17.06-7.08c4.32-5.45,6.67-12.24,6.67-19.25s-2.35-13.79-6.67-19.24c-4.56-4.54-10.69-7.09-17.06-7.09s-12.5,2.55-17.06,7.09v-.24Z"/><path class="d" d="M425.87,343.57l-5.64-12.39c-3.22-7.09-8.94-12.72-16.07-15.8l-12.51-5.41,12.42-5.67c7.03-3.23,12.61-8.99,15.63-16.15l5.39-12.48,5.64,12.39c3.22,7.09,8.94,12.72,16.07,15.8l12.51,5.41-12.42,5.67c-7.01,3.23-12.58,8.95-15.63,16.06l-5.39,12.57Z"/><path class="c" d="M335.9,296.69v-54.79h44.65v-44.74H239.42v44.74h44v55.04c0,55.71,28.32,120.89,108.24,120.89v-43.4c-40.81-.25-55.75-32.59-55.75-77.74Z"/></svg>